<mxfile host="app.diagrams.net" modified="2023-10-23T15:56:37.440Z" agent="Mozilla/5.0 (Macintosh; Intel Mac OS X 10_15_7) AppleWebKit/537.36 (KHTML, like Gecko) Chrome/118.0.0.0 Safari/537.36" etag="YjibSnjnzgBkwK-TZxYb" version="22.0.6" type="github">
  <diagram id="C5RBs43oDa-KdzZeNtuy" name="Page-1">
    <mxGraphModel dx="1941" dy="618" grid="1" gridSize="10" guides="1" tooltips="1" connect="1" arrows="1" fold="1" page="1" pageScale="1" pageWidth="827" pageHeight="1169" math="0" shadow="0">
      <root>
        <mxCell id="WIyWlLk6GJQsqaUBKTNV-0" />
        <mxCell id="WIyWlLk6GJQsqaUBKTNV-1" parent="WIyWlLk6GJQsqaUBKTNV-0" />
        <mxCell id="L0QDfx9UxgabpVASo6Bn-4" value="Perfil.controller" style="swimlane;fontStyle=1;align=center;verticalAlign=top;childLayout=stackLayout;horizontal=1;startSize=26;horizontalStack=0;resizeParent=1;resizeParentMax=0;resizeLast=0;collapsible=1;marginBottom=0;whiteSpace=wrap;html=1;" parent="WIyWlLk6GJQsqaUBKTNV-1" vertex="1">
          <mxGeometry x="-25" y="650" width="220" height="130" as="geometry" />
        </mxCell>
        <mxCell id="L0QDfx9UxgabpVASo6Bn-5" value="+ perfilService: perfil.service" style="text;strokeColor=none;fillColor=none;align=left;verticalAlign=top;spacingLeft=4;spacingRight=4;overflow=hidden;rotatable=0;points=[[0,0.5],[1,0.5]];portConstraint=eastwest;whiteSpace=wrap;html=1;" parent="L0QDfx9UxgabpVASo6Bn-4" vertex="1">
          <mxGeometry y="26" width="220" height="26" as="geometry" />
        </mxCell>
        <mxCell id="L0QDfx9UxgabpVASo6Bn-6" value="" style="line;strokeWidth=1;fillColor=none;align=left;verticalAlign=middle;spacingTop=-1;spacingLeft=3;spacingRight=3;rotatable=0;labelPosition=right;points=[];portConstraint=eastwest;strokeColor=inherit;" parent="L0QDfx9UxgabpVASo6Bn-4" vertex="1">
          <mxGeometry y="52" width="220" height="8" as="geometry" />
        </mxCell>
        <mxCell id="L0QDfx9UxgabpVASo6Bn-7" value="+ getInfo(id: int): Response&lt;br style=&quot;border-color: var(--border-color);&quot;&gt;+ changePassword(password: string, id: int): Response&lt;br style=&quot;border-color: var(--border-color);&quot;&gt;+ postPerfil(payload: Perfil): Response" style="text;strokeColor=none;fillColor=none;align=left;verticalAlign=top;spacingLeft=4;spacingRight=4;overflow=hidden;rotatable=0;points=[[0,0.5],[1,0.5]];portConstraint=eastwest;whiteSpace=wrap;html=1;" parent="L0QDfx9UxgabpVASo6Bn-4" vertex="1">
          <mxGeometry y="60" width="220" height="70" as="geometry" />
        </mxCell>
        <mxCell id="L0QDfx9UxgabpVASo6Bn-8" value="Perfil.service" style="swimlane;fontStyle=1;align=center;verticalAlign=top;childLayout=stackLayout;horizontal=1;startSize=26;horizontalStack=0;resizeParent=1;resizeParentMax=0;resizeLast=0;collapsible=1;marginBottom=0;whiteSpace=wrap;html=1;" parent="WIyWlLk6GJQsqaUBKTNV-1" vertex="1">
          <mxGeometry x="-35" y="470" width="240" height="130" as="geometry" />
        </mxCell>
        <mxCell id="L0QDfx9UxgabpVASo6Bn-9" value="+ perfil: perfil.entity" style="text;strokeColor=none;fillColor=none;align=left;verticalAlign=top;spacingLeft=4;spacingRight=4;overflow=hidden;rotatable=0;points=[[0,0.5],[1,0.5]];portConstraint=eastwest;whiteSpace=wrap;html=1;" parent="L0QDfx9UxgabpVASo6Bn-8" vertex="1">
          <mxGeometry y="26" width="240" height="26" as="geometry" />
        </mxCell>
        <mxCell id="L0QDfx9UxgabpVASo6Bn-10" value="" style="line;strokeWidth=1;fillColor=none;align=left;verticalAlign=middle;spacingTop=-1;spacingLeft=3;spacingRight=3;rotatable=0;labelPosition=right;points=[];portConstraint=eastwest;strokeColor=inherit;" parent="L0QDfx9UxgabpVASo6Bn-8" vertex="1">
          <mxGeometry y="52" width="240" height="8" as="geometry" />
        </mxCell>
        <mxCell id="L0QDfx9UxgabpVASo6Bn-11" value="+ getInfo(id: int): Promise&amp;lt;Perfil.entity&amp;gt;&lt;br&gt;+ changePassword(password: String, id: Int): Promise&amp;lt;Perfil.entity&amp;gt;&lt;br&gt;+ postPerfil(perfil): Promise&amp;lt;Perfil.entity&amp;gt;" style="text;strokeColor=none;fillColor=none;align=left;verticalAlign=top;spacingLeft=4;spacingRight=4;overflow=hidden;rotatable=0;points=[[0,0.5],[1,0.5]];portConstraint=eastwest;whiteSpace=wrap;html=1;" parent="L0QDfx9UxgabpVASo6Bn-8" vertex="1">
          <mxGeometry y="60" width="240" height="70" as="geometry" />
        </mxCell>
        <mxCell id="L0QDfx9UxgabpVASo6Bn-12" value="Perfil.entity" style="swimlane;fontStyle=1;align=center;verticalAlign=top;childLayout=stackLayout;horizontal=1;startSize=26;horizontalStack=0;resizeParent=1;resizeParentMax=0;resizeLast=0;collapsible=1;marginBottom=0;whiteSpace=wrap;html=1;" parent="WIyWlLk6GJQsqaUBKTNV-1" vertex="1">
          <mxGeometry x="5" y="290" width="160" height="128" as="geometry" />
        </mxCell>
        <mxCell id="L0QDfx9UxgabpVASo6Bn-13" value="+ name: string&lt;br&gt;+ email: string&lt;br&gt;+ username: string&lt;br&gt;+ password: string&lt;br&gt;+ student_id: Int" style="text;strokeColor=none;fillColor=none;align=left;verticalAlign=top;spacingLeft=4;spacingRight=4;overflow=hidden;rotatable=0;points=[[0,0.5],[1,0.5]];portConstraint=eastwest;whiteSpace=wrap;html=1;" parent="L0QDfx9UxgabpVASo6Bn-12" vertex="1">
          <mxGeometry y="26" width="160" height="94" as="geometry" />
        </mxCell>
        <mxCell id="L0QDfx9UxgabpVASo6Bn-14" value="" style="line;strokeWidth=1;fillColor=none;align=left;verticalAlign=middle;spacingTop=-1;spacingLeft=3;spacingRight=3;rotatable=0;labelPosition=right;points=[];portConstraint=eastwest;strokeColor=inherit;" parent="L0QDfx9UxgabpVASo6Bn-12" vertex="1">
          <mxGeometry y="120" width="160" height="8" as="geometry" />
        </mxCell>
        <mxCell id="L0QDfx9UxgabpVASo6Bn-16" value="RegistroEmocional.entity" style="swimlane;fontStyle=1;align=center;verticalAlign=top;childLayout=stackLayout;horizontal=1;startSize=26;horizontalStack=0;resizeParent=1;resizeParentMax=0;resizeLast=0;collapsible=1;marginBottom=0;whiteSpace=wrap;html=1;" parent="WIyWlLk6GJQsqaUBKTNV-1" vertex="1">
          <mxGeometry x="585" y="223" width="160" height="98" as="geometry" />
        </mxCell>
        <mxCell id="L0QDfx9UxgabpVASo6Bn-17" value="+ title: string&lt;br&gt;+ description: string&lt;br&gt;+ date: Date&lt;br&gt;+ student_id: Int" style="text;strokeColor=none;fillColor=none;align=left;verticalAlign=top;spacingLeft=4;spacingRight=4;overflow=hidden;rotatable=0;points=[[0,0.5],[1,0.5]];portConstraint=eastwest;whiteSpace=wrap;html=1;" parent="L0QDfx9UxgabpVASo6Bn-16" vertex="1">
          <mxGeometry y="26" width="160" height="64" as="geometry" />
        </mxCell>
        <mxCell id="L0QDfx9UxgabpVASo6Bn-18" value="" style="line;strokeWidth=1;fillColor=none;align=left;verticalAlign=middle;spacingTop=-1;spacingLeft=3;spacingRight=3;rotatable=0;labelPosition=right;points=[];portConstraint=eastwest;strokeColor=inherit;" parent="L0QDfx9UxgabpVASo6Bn-16" vertex="1">
          <mxGeometry y="90" width="160" height="8" as="geometry" />
        </mxCell>
        <mxCell id="L0QDfx9UxgabpVASo6Bn-24" value="RegistroEmocional.service" style="swimlane;fontStyle=1;align=center;verticalAlign=top;childLayout=stackLayout;horizontal=1;startSize=26;horizontalStack=0;resizeParent=1;resizeParentMax=0;resizeLast=0;collapsible=1;marginBottom=0;whiteSpace=wrap;html=1;" parent="WIyWlLk6GJQsqaUBKTNV-1" vertex="1">
          <mxGeometry x="550" y="380" width="230" height="170" as="geometry" />
        </mxCell>
        <mxCell id="L0QDfx9UxgabpVASo6Bn-25" value="+ registroE: RegistroEmocional.entity" style="text;strokeColor=none;fillColor=none;align=left;verticalAlign=top;spacingLeft=4;spacingRight=4;overflow=hidden;rotatable=0;points=[[0,0.5],[1,0.5]];portConstraint=eastwest;whiteSpace=wrap;html=1;" parent="L0QDfx9UxgabpVASo6Bn-24" vertex="1">
          <mxGeometry y="26" width="230" height="26" as="geometry" />
        </mxCell>
        <mxCell id="L0QDfx9UxgabpVASo6Bn-26" value="" style="line;strokeWidth=1;fillColor=none;align=left;verticalAlign=middle;spacingTop=-1;spacingLeft=3;spacingRight=3;rotatable=0;labelPosition=right;points=[];portConstraint=eastwest;strokeColor=inherit;" parent="L0QDfx9UxgabpVASo6Bn-24" vertex="1">
          <mxGeometry y="52" width="230" height="8" as="geometry" />
        </mxCell>
        <mxCell id="L0QDfx9UxgabpVASo6Bn-27" value="+ getRegistro(): Promise&amp;lt;RegistroEmocional.entity&amp;gt;&lt;br style=&quot;border-color: var(--border-color);&quot;&gt;+ getAllRegistros(): Promise&amp;lt;RegistroEmocional.entity&amp;gt;&lt;br style=&quot;border-color: var(--border-color);&quot;&gt;+ postRegistro(): Promise&amp;lt;RegistroEmocional.entity&amp;gt;" style="text;strokeColor=none;fillColor=none;align=left;verticalAlign=top;spacingLeft=4;spacingRight=4;overflow=hidden;rotatable=0;points=[[0,0.5],[1,0.5]];portConstraint=eastwest;whiteSpace=wrap;html=1;" parent="L0QDfx9UxgabpVASo6Bn-24" vertex="1">
          <mxGeometry y="60" width="230" height="110" as="geometry" />
        </mxCell>
        <mxCell id="L0QDfx9UxgabpVASo6Bn-28" value="Registro.controller" style="swimlane;fontStyle=1;align=center;verticalAlign=top;childLayout=stackLayout;horizontal=1;startSize=26;horizontalStack=0;resizeParent=1;resizeParentMax=0;resizeLast=0;collapsible=1;marginBottom=0;whiteSpace=wrap;html=1;" parent="WIyWlLk6GJQsqaUBKTNV-1" vertex="1">
          <mxGeometry x="370" y="668" width="320" height="158" as="geometry" />
        </mxCell>
        <mxCell id="L0QDfx9UxgabpVASo6Bn-29" value="+ registroEmService: RegistroEmocional.service&lt;br&gt;+ registroTrasService: RegistroTrascendental.service" style="text;strokeColor=none;fillColor=none;align=left;verticalAlign=top;spacingLeft=4;spacingRight=4;overflow=hidden;rotatable=0;points=[[0,0.5],[1,0.5]];portConstraint=eastwest;whiteSpace=wrap;html=1;" parent="L0QDfx9UxgabpVASo6Bn-28" vertex="1">
          <mxGeometry y="26" width="320" height="54" as="geometry" />
        </mxCell>
        <mxCell id="L0QDfx9UxgabpVASo6Bn-30" value="" style="line;strokeWidth=1;fillColor=none;align=left;verticalAlign=middle;spacingTop=-1;spacingLeft=3;spacingRight=3;rotatable=0;labelPosition=right;points=[];portConstraint=eastwest;strokeColor=inherit;" parent="L0QDfx9UxgabpVASo6Bn-28" vertex="1">
          <mxGeometry y="80" width="320" height="8" as="geometry" />
        </mxCell>
        <mxCell id="L0QDfx9UxgabpVASo6Bn-31" value="+ getRegistro(): Response&lt;br&gt;+ getAllRegistros(): Response&lt;br&gt;+ postRegistro(): Response" style="text;strokeColor=none;fillColor=none;align=left;verticalAlign=top;spacingLeft=4;spacingRight=4;overflow=hidden;rotatable=0;points=[[0,0.5],[1,0.5]];portConstraint=eastwest;whiteSpace=wrap;html=1;" parent="L0QDfx9UxgabpVASo6Bn-28" vertex="1">
          <mxGeometry y="88" width="320" height="70" as="geometry" />
        </mxCell>
        <mxCell id="cBkFvcuq_8SDpKLgJUTm-0" value="RegistroTrascendental.entity" style="swimlane;fontStyle=1;align=center;verticalAlign=top;childLayout=stackLayout;horizontal=1;startSize=26;horizontalStack=0;resizeParent=1;resizeParentMax=0;resizeLast=0;collapsible=1;marginBottom=0;whiteSpace=wrap;html=1;" parent="WIyWlLk6GJQsqaUBKTNV-1" vertex="1">
          <mxGeometry x="324" y="188" width="180" height="148" as="geometry" />
        </mxCell>
        <mxCell id="cBkFvcuq_8SDpKLgJUTm-1" value="+ title: string&lt;br&gt;+ description: string&lt;br&gt;+ date: Date&lt;br&gt;+ where: string&lt;br&gt;+ doing: string&lt;br&gt;+ with: string&lt;br&gt;+ student_id: Int" style="text;strokeColor=none;fillColor=none;align=left;verticalAlign=top;spacingLeft=4;spacingRight=4;overflow=hidden;rotatable=0;points=[[0,0.5],[1,0.5]];portConstraint=eastwest;whiteSpace=wrap;html=1;" parent="cBkFvcuq_8SDpKLgJUTm-0" vertex="1">
          <mxGeometry y="26" width="180" height="114" as="geometry" />
        </mxCell>
        <mxCell id="cBkFvcuq_8SDpKLgJUTm-2" value="" style="line;strokeWidth=1;fillColor=none;align=left;verticalAlign=middle;spacingTop=-1;spacingLeft=3;spacingRight=3;rotatable=0;labelPosition=right;points=[];portConstraint=eastwest;strokeColor=inherit;" parent="cBkFvcuq_8SDpKLgJUTm-0" vertex="1">
          <mxGeometry y="140" width="180" height="8" as="geometry" />
        </mxCell>
        <mxCell id="cBkFvcuq_8SDpKLgJUTm-4" value="RegistroTrascendental.service" style="swimlane;fontStyle=1;align=center;verticalAlign=top;childLayout=stackLayout;horizontal=1;startSize=26;horizontalStack=0;resizeParent=1;resizeParentMax=0;resizeLast=0;collapsible=1;marginBottom=0;whiteSpace=wrap;html=1;" parent="WIyWlLk6GJQsqaUBKTNV-1" vertex="1">
          <mxGeometry x="294" y="380" width="240" height="170" as="geometry" />
        </mxCell>
        <mxCell id="cBkFvcuq_8SDpKLgJUTm-5" value="+ registroT: registroTrascendental.entity" style="text;strokeColor=none;fillColor=none;align=left;verticalAlign=top;spacingLeft=4;spacingRight=4;overflow=hidden;rotatable=0;points=[[0,0.5],[1,0.5]];portConstraint=eastwest;whiteSpace=wrap;html=1;" parent="cBkFvcuq_8SDpKLgJUTm-4" vertex="1">
          <mxGeometry y="26" width="240" height="26" as="geometry" />
        </mxCell>
        <mxCell id="cBkFvcuq_8SDpKLgJUTm-6" value="" style="line;strokeWidth=1;fillColor=none;align=left;verticalAlign=middle;spacingTop=-1;spacingLeft=3;spacingRight=3;rotatable=0;labelPosition=right;points=[];portConstraint=eastwest;strokeColor=inherit;" parent="cBkFvcuq_8SDpKLgJUTm-4" vertex="1">
          <mxGeometry y="52" width="240" height="8" as="geometry" />
        </mxCell>
        <mxCell id="cBkFvcuq_8SDpKLgJUTm-7" value="+ getRegistro(): Promise&amp;lt;registroTrascendental.entity&amp;gt;&lt;br style=&quot;border-color: var(--border-color);&quot;&gt;+ getAllRegistros(): Promise&amp;lt;registroTrascendental.entity&amp;gt;&lt;br style=&quot;border-color: var(--border-color);&quot;&gt;+ postRegistro(): Promise&amp;lt;registroTrascendental.entity&amp;gt;" style="text;strokeColor=none;fillColor=none;align=left;verticalAlign=top;spacingLeft=4;spacingRight=4;overflow=hidden;rotatable=0;points=[[0,0.5],[1,0.5]];portConstraint=eastwest;whiteSpace=wrap;html=1;" parent="cBkFvcuq_8SDpKLgJUTm-4" vertex="1">
          <mxGeometry y="60" width="240" height="110" as="geometry" />
        </mxCell>
        <mxCell id="cBkFvcuq_8SDpKLgJUTm-15" value="Notification.entity" style="swimlane;fontStyle=1;align=center;verticalAlign=top;childLayout=stackLayout;horizontal=1;startSize=26;horizontalStack=0;resizeParent=1;resizeParentMax=0;resizeLast=0;collapsible=1;marginBottom=0;whiteSpace=wrap;html=1;" parent="WIyWlLk6GJQsqaUBKTNV-1" vertex="1">
          <mxGeometry x="870" y="213" width="180" height="118" as="geometry" />
        </mxCell>
        <mxCell id="cBkFvcuq_8SDpKLgJUTm-16" value="+ token: string&lt;br&gt;+ device_type: string&lt;br&gt;+ active: boolean&lt;br&gt;+ student_id: Int" style="text;strokeColor=none;fillColor=none;align=left;verticalAlign=top;spacingLeft=4;spacingRight=4;overflow=hidden;rotatable=0;points=[[0,0.5],[1,0.5]];portConstraint=eastwest;whiteSpace=wrap;html=1;" parent="cBkFvcuq_8SDpKLgJUTm-15" vertex="1">
          <mxGeometry y="26" width="180" height="84" as="geometry" />
        </mxCell>
        <mxCell id="cBkFvcuq_8SDpKLgJUTm-17" value="" style="line;strokeWidth=1;fillColor=none;align=left;verticalAlign=middle;spacingTop=-1;spacingLeft=3;spacingRight=3;rotatable=0;labelPosition=right;points=[];portConstraint=eastwest;strokeColor=inherit;" parent="cBkFvcuq_8SDpKLgJUTm-15" vertex="1">
          <mxGeometry y="110" width="180" height="8" as="geometry" />
        </mxCell>
        <mxCell id="cBkFvcuq_8SDpKLgJUTm-24" value="Notification.service" style="swimlane;fontStyle=1;align=center;verticalAlign=top;childLayout=stackLayout;horizontal=1;startSize=26;horizontalStack=0;resizeParent=1;resizeParentMax=0;resizeLast=0;collapsible=1;marginBottom=0;whiteSpace=wrap;html=1;" parent="WIyWlLk6GJQsqaUBKTNV-1" vertex="1">
          <mxGeometry x="820" y="390" width="280" height="130" as="geometry" />
        </mxCell>
        <mxCell id="cBkFvcuq_8SDpKLgJUTm-25" value="+ notification: Notification.entity" style="text;strokeColor=none;fillColor=none;align=left;verticalAlign=top;spacingLeft=4;spacingRight=4;overflow=hidden;rotatable=0;points=[[0,0.5],[1,0.5]];portConstraint=eastwest;whiteSpace=wrap;html=1;" parent="cBkFvcuq_8SDpKLgJUTm-24" vertex="1">
          <mxGeometry y="26" width="280" height="26" as="geometry" />
        </mxCell>
        <mxCell id="cBkFvcuq_8SDpKLgJUTm-26" value="" style="line;strokeWidth=1;fillColor=none;align=left;verticalAlign=middle;spacingTop=-1;spacingLeft=3;spacingRight=3;rotatable=0;labelPosition=right;points=[];portConstraint=eastwest;strokeColor=inherit;" parent="cBkFvcuq_8SDpKLgJUTm-24" vertex="1">
          <mxGeometry y="52" width="280" height="8" as="geometry" />
        </mxCell>
        <mxCell id="cBkFvcuq_8SDpKLgJUTm-27" value="+ enableNotification(): Promise&amp;lt;Notification.entity&amp;gt;&lt;br&gt;+ unableNotification(): Promise&amp;lt;Notification.entity&amp;gt;&lt;br&gt;+ sendPush(): Promise&amp;lt;Notification.entity&amp;gt;" style="text;strokeColor=none;fillColor=none;align=left;verticalAlign=top;spacingLeft=4;spacingRight=4;overflow=hidden;rotatable=0;points=[[0,0.5],[1,0.5]];portConstraint=eastwest;whiteSpace=wrap;html=1;" parent="cBkFvcuq_8SDpKLgJUTm-24" vertex="1">
          <mxGeometry y="60" width="280" height="70" as="geometry" />
        </mxCell>
        <mxCell id="cBkFvcuq_8SDpKLgJUTm-28" value="Notification.controller" style="swimlane;fontStyle=1;align=center;verticalAlign=top;childLayout=stackLayout;horizontal=1;startSize=26;horizontalStack=0;resizeParent=1;resizeParentMax=0;resizeLast=0;collapsible=1;marginBottom=0;whiteSpace=wrap;html=1;" parent="WIyWlLk6GJQsqaUBKTNV-1" vertex="1">
          <mxGeometry x="840" y="660" width="240" height="130" as="geometry" />
        </mxCell>
        <mxCell id="cBkFvcuq_8SDpKLgJUTm-29" value="+ notificationService: notification.service" style="text;strokeColor=none;fillColor=none;align=left;verticalAlign=top;spacingLeft=4;spacingRight=4;overflow=hidden;rotatable=0;points=[[0,0.5],[1,0.5]];portConstraint=eastwest;whiteSpace=wrap;html=1;" parent="cBkFvcuq_8SDpKLgJUTm-28" vertex="1">
          <mxGeometry y="26" width="240" height="26" as="geometry" />
        </mxCell>
        <mxCell id="cBkFvcuq_8SDpKLgJUTm-30" value="" style="line;strokeWidth=1;fillColor=none;align=left;verticalAlign=middle;spacingTop=-1;spacingLeft=3;spacingRight=3;rotatable=0;labelPosition=right;points=[];portConstraint=eastwest;strokeColor=inherit;" parent="cBkFvcuq_8SDpKLgJUTm-28" vertex="1">
          <mxGeometry y="52" width="240" height="8" as="geometry" />
        </mxCell>
        <mxCell id="cBkFvcuq_8SDpKLgJUTm-31" value="+ enableNotification(): Response&lt;br style=&quot;border-color: var(--border-color);&quot;&gt;+ unableNotification(): Response&lt;br style=&quot;border-color: var(--border-color);&quot;&gt;+ sendPush(): Response" style="text;strokeColor=none;fillColor=none;align=left;verticalAlign=top;spacingLeft=4;spacingRight=4;overflow=hidden;rotatable=0;points=[[0,0.5],[1,0.5]];portConstraint=eastwest;whiteSpace=wrap;html=1;" parent="cBkFvcuq_8SDpKLgJUTm-28" vertex="1">
          <mxGeometry y="60" width="240" height="70" as="geometry" />
        </mxCell>
        <mxCell id="mwsPFuy9TEgTdgCM0ixo-0" value="" style="endArrow=diamondThin;endFill=1;endSize=24;html=1;rounded=0;" parent="WIyWlLk6GJQsqaUBKTNV-1" source="L0QDfx9UxgabpVASo6Bn-12" target="L0QDfx9UxgabpVASo6Bn-8" edge="1">
          <mxGeometry width="160" relative="1" as="geometry">
            <mxPoint x="-33" y="520" as="sourcePoint" />
            <mxPoint x="127" y="520" as="targetPoint" />
          </mxGeometry>
        </mxCell>
        <mxCell id="mwsPFuy9TEgTdgCM0ixo-1" value="" style="endArrow=diamondThin;endFill=1;endSize=24;html=1;rounded=0;" parent="WIyWlLk6GJQsqaUBKTNV-1" source="L0QDfx9UxgabpVASo6Bn-8" target="L0QDfx9UxgabpVASo6Bn-4" edge="1">
          <mxGeometry width="160" relative="1" as="geometry">
            <mxPoint x="-33" y="520" as="sourcePoint" />
            <mxPoint x="127" y="520" as="targetPoint" />
          </mxGeometry>
        </mxCell>
        <mxCell id="mwsPFuy9TEgTdgCM0ixo-2" value="" style="endArrow=diamondThin;endFill=1;endSize=24;html=1;rounded=0;" parent="WIyWlLk6GJQsqaUBKTNV-1" source="L0QDfx9UxgabpVASo6Bn-16" target="L0QDfx9UxgabpVASo6Bn-24" edge="1">
          <mxGeometry width="160" relative="1" as="geometry">
            <mxPoint x="1274" y="340" as="sourcePoint" />
            <mxPoint x="1434" y="340" as="targetPoint" />
          </mxGeometry>
        </mxCell>
        <mxCell id="mwsPFuy9TEgTdgCM0ixo-3" value="" style="endArrow=diamondThin;endFill=1;endSize=24;html=1;rounded=0;" parent="WIyWlLk6GJQsqaUBKTNV-1" source="L0QDfx9UxgabpVASo6Bn-24" target="L0QDfx9UxgabpVASo6Bn-28" edge="1">
          <mxGeometry width="160" relative="1" as="geometry">
            <mxPoint x="1274" y="340" as="sourcePoint" />
            <mxPoint x="1434" y="340" as="targetPoint" />
          </mxGeometry>
        </mxCell>
        <mxCell id="mwsPFuy9TEgTdgCM0ixo-4" value="" style="endArrow=diamondThin;endFill=1;endSize=24;html=1;rounded=0;" parent="WIyWlLk6GJQsqaUBKTNV-1" source="cBkFvcuq_8SDpKLgJUTm-0" target="cBkFvcuq_8SDpKLgJUTm-4" edge="1">
          <mxGeometry width="160" relative="1" as="geometry">
            <mxPoint x="1274" y="340" as="sourcePoint" />
            <mxPoint x="1434" y="340" as="targetPoint" />
          </mxGeometry>
        </mxCell>
        <mxCell id="mwsPFuy9TEgTdgCM0ixo-5" value="" style="endArrow=diamondThin;endFill=1;endSize=24;html=1;rounded=0;" parent="WIyWlLk6GJQsqaUBKTNV-1" source="cBkFvcuq_8SDpKLgJUTm-4" target="L0QDfx9UxgabpVASo6Bn-28" edge="1">
          <mxGeometry width="160" relative="1" as="geometry">
            <mxPoint x="1140" y="572" as="sourcePoint" />
            <mxPoint x="1217" y="581" as="targetPoint" />
          </mxGeometry>
        </mxCell>
        <mxCell id="mwsPFuy9TEgTdgCM0ixo-6" value="" style="endArrow=diamondThin;endFill=1;endSize=24;html=1;rounded=0;" parent="WIyWlLk6GJQsqaUBKTNV-1" source="cBkFvcuq_8SDpKLgJUTm-15" target="cBkFvcuq_8SDpKLgJUTm-24" edge="1">
          <mxGeometry width="160" relative="1" as="geometry">
            <mxPoint x="973" y="822" as="sourcePoint" />
            <mxPoint x="1050" y="831" as="targetPoint" />
          </mxGeometry>
        </mxCell>
        <mxCell id="mwsPFuy9TEgTdgCM0ixo-7" value="" style="endArrow=diamondThin;endFill=1;endSize=24;html=1;rounded=0;" parent="WIyWlLk6GJQsqaUBKTNV-1" source="cBkFvcuq_8SDpKLgJUTm-24" target="cBkFvcuq_8SDpKLgJUTm-28" edge="1">
          <mxGeometry width="160" relative="1" as="geometry">
            <mxPoint x="963" y="1062" as="sourcePoint" />
            <mxPoint x="1065" y="1065" as="targetPoint" />
          </mxGeometry>
        </mxCell>
        <mxCell id="mwsPFuy9TEgTdgCM0ixo-9" value="" style="endArrow=diamondThin;endFill=1;endSize=24;html=1;rounded=0;" parent="WIyWlLk6GJQsqaUBKTNV-1" source="cBkFvcuq_8SDpKLgJUTm-4" target="L0QDfx9UxgabpVASo6Bn-8" edge="1">
          <mxGeometry width="160" relative="1" as="geometry">
            <mxPoint x="650" y="520" as="sourcePoint" />
            <mxPoint x="810" y="520" as="targetPoint" />
          </mxGeometry>
        </mxCell>
        <mxCell id="mwsPFuy9TEgTdgCM0ixo-10" value="" style="endArrow=diamondThin;endFill=1;endSize=24;html=1;rounded=0;" parent="WIyWlLk6GJQsqaUBKTNV-1" source="L0QDfx9UxgabpVASo6Bn-24" target="L0QDfx9UxgabpVASo6Bn-8" edge="1">
          <mxGeometry width="160" relative="1" as="geometry">
            <mxPoint x="650" y="520" as="sourcePoint" />
            <mxPoint x="810" y="520" as="targetPoint" />
            <Array as="points">
              <mxPoint x="500" y="620" />
              <mxPoint x="360" y="620" />
            </Array>
          </mxGeometry>
        </mxCell>
        <mxCell id="mwsPFuy9TEgTdgCM0ixo-11" value="" style="endArrow=diamondThin;endFill=1;endSize=24;html=1;rounded=0;" parent="WIyWlLk6GJQsqaUBKTNV-1" source="cBkFvcuq_8SDpKLgJUTm-24" target="L0QDfx9UxgabpVASo6Bn-8" edge="1">
          <mxGeometry width="160" relative="1" as="geometry">
            <mxPoint x="650" y="520" as="sourcePoint" />
            <mxPoint x="810" y="520" as="targetPoint" />
            <Array as="points">
              <mxPoint x="720" y="600" />
            </Array>
          </mxGeometry>
        </mxCell>
      </root>
    </mxGraphModel>
  </diagram>
</mxfile>
